#!OML:ASF E:\Mandelcareful walks\Project 1\Capture day 1\Session 1\Subject1.ASF
:FULLY-SPECIFIED
:DEGREES
662
root 12.4466 13.1069 0.177606 -129.693 -75.505 154.158
lowerback 38.3458 4.80009 2.55801
upperback 13.2691 5.15057 4.19067
thorax -4.19238 1.64599 1.30725
lowerneck -33.6888 -10.4853 -6.91086
upperneck 24.8602 -11.8888 1.20593
head 14.5596 -5.51898 -1.00401
rclavicle 1.27222e-014 3.33958e-014
rhumerus 49.4439 -0.602712 -73.4348
rradius 35.3938
rwrist -33.0608
rhand -19.1028 -36.6339
rfingers 7.12502
rthumb 7.20589 -66.4912
lclavicle 1.27222e-014 3.33958e-014
lhumerus -99.1308 -37.8217 138.13
lradius 90.2077
lwrist 50.4005
lhand 9.74019 -15.432
lfingers 7.12502
lthumb 34.8799 11.152
rfemur -84.6317 -22.2278 9.96439
rtibia 85.0553
rfoot -19.262 1.80938
rtoes -7.82359
lfemur -74.9589 15.395 -18.0681
ltibia 90.0003
lfoot -31.3408 6.24266
ltoes -17.7193
663
root 12.4494 13.1098 0.162074 -130.509 -75.1175 155.02
lowerback 38.4912 4.89399 2.53517
upperback 13.2208 5.26116 4.25134
thorax -4.30225 1.68955 1.3373
lowerneck -33.6709 -10.2985 -6.77839
upperneck 24.9254 -11.6244 0.984019
head 14.5481 -5.43176 -1.05396
rclavicle -2.54444e-014 1.11319e-014
rhumerus 49.7141 -0.551989 -73.455
rradius 34.9501
rwrist -32.5851
rhand -18.9239 -37.9143
rfingers 7.12502
rthumb 7.37858 -67.7656
lclavicle -2.54444e-014 1.11319e-014
lhumerus -99.551 -37.891 138.324
lradius 90.4786
lwrist 50.4805
lhand 9.75713 -15.4093
lfingers 7.12502
lthumb 34.8959 11.171
rfemur -84.9354 -21.9238 10.1026
rtibia 85.09
rfoot -19.2268 2.01399
rtoes -8.23057
lfemur -74.8504 15.6587 -18.0225
ltibia 89.9997
lfoot -31.3812 6.4593
ltoes -17.672
664
root 12.4538 13.1281 0.150404 -130.999 -74.7863 155.532
lowerback 38.6326 4.9158 2.55608
upperback 13.2092 5.28981 4.28277
thorax -4.36183 1.69594 1.34505
lowerneck -33.5952 -9.99415 -6.40994
upperneck 24.7494 -11.241 0.574411
head 14.3868 -5.3087 -1.17625
rclavicle -3.18055e-015 -7.95139e-015
rhumerus 50.1646 -0.439166 -73.411
rradius 34.3913
rwrist -32.342
rhand -18.5308 -37.2497
rfingers 7.12502
rthumb 7.75807 -67.0873
lclavicle -3.18055e-015 -7.95139e-015
lhumerus -99.9925 -38.0694 138.397
lradius 90.7268
lwrist 50.785
lhand 9.90225 -15.9704
lfingers 7.12502
lthumb 35.0336 10.5779
rfemur -85.0663 -21.7127 10.2111
rtibia 85.0018
rfoot -19.212 2.37057
rtoes -8.13147
lfemur -74.628 15.7796 -18.0282
ltibia 89.8836
lfoot -31.4757 6.6667
ltoes -17.5712
665
root 12.4525 13.1058 0.136259 -131.624 -74.5622 156.171
lowerback 38.7723 4.90063 2.67633
upperback 13.2503 5.29665 4.33767
thorax -4.35502 1.69124 1.33674
lowerneck -33.8234 -9.71465 -6.08424
upperneck 24.7941 -10.8588 0.166833
head 14.3844 -5.17968 -1.31341
rclavicle 3.18055e-015 -8.74653e-015
rhumerus 50.681 -0.410565 -73.5099
rradius 33.6875
rwrist -31.8317
rhand -18.846 -37.7
rfingers 7.12502
rthumb 7.45376 -67.5487
lclavicle 3.18055e-015 -8.74653e-015
lhumerus -100.344 -38.3605 138.149
lradius 91.1703
lwrist 50.6879
lhand 10.2805 -15.608
lfingers 7.12502
lthumb 35.3923 10.8555
rfemur -85.3539 -21.5461 10.3702
rtibia 85.1107
rfoot -19.1711 2.60627
rtoes -8.20312
lfemur -74.6656 16.058 -17.9512
ltibia 89.9935
lfoot -31.4697 6.77361
ltoes -17.7144
666
root 12.4614 13.126 0.121031 -132.713 -74.4169 157.235
lowerback 38.9927 4.92917 2.8631
upperback 13.2441 5.39421 4.47829
thorax -4.42959 1.72559 1.34804
lowerneck -34.0988 -9.54544 -6.05394
upperneck 25.1772 -10.5371 -0.124978
head 14.5719 -5.07964 -1.39004
rclavicle 9.54166e-015 7.95139e-015
rhumerus 50.8991 -0.334096 -73.4991
rradius 33.2926
rwrist -31.5102
rhand -19.0877 -36.8592
rfingers 7.12502
rthumb 7.22051 -66.716
lclavicle 9.54166e-015 7.95139e-015
lhumerus -100.778 -38.6863 137.853
lradius 91.7476
lwrist 50.3577
lhand 10.9649 -14.8882
lfingers 7.12502
lthumb 36.041 11.4182
rfemur -85.2493 -21.2059 10.6458
rtibia 84.9785
rfoot -19.2003 2.68895
rtoes -8.04764
lfemur -74.5126 16.3229 -17.7236
ltibia 89.8732
lfoot -31.3356 7.02144
ltoes -18.037
667
root 12.4684 13.1316 0.102277 -134.123 -74.3225 158.543
lowerback 39.2635 4.97938 3.12255
upperback 13.2333 5.54611 4.64774
thorax -4.52093 1.78391 1.33158
lowerneck -34.1444 -9.41433 -6.12062
upperneck 25.4068 -10.2546 -0.346252
head 14.6644 -5.0018 -1.41796
rclavicle -6.36111e-015 2.38542e-015
rhumerus 50.9898 -0.296132 -73.4185
rradius 33.2964
rwrist -31.4243
rhand -19.1803 -35.6988
rfingers 7.12502
rthumb 7.1311 -65.5587
lclavicle -6.36111e-015 2.38542e-015
lhumerus -101.366 -39.2134 137.537
lradius 92.3239
lwrist 49.9943
lhand 12.0282 -14.3097
lfingers 7.12502
lthumb 37.0474 11.7425
rfemur -85.1269 -20.8561 10.9782
rtibia 84.9892
rfoot -19.2618 2.83844
rtoes -7.902
lfemur -74.3442 16.6398 -17.3163
ltibia 89.8434
lfoot -31.3694 7.28683
ltoes -19.2621
668
root 12.473 13.1281 0.0817995 -135.147 -74.2019 159.404
lowerback 39.4571 5.04759 3.28562
upperback 13.3034 5.67113 4.83128
thorax -4.50922 1.82643 1.3935
lowerneck -34.1911 -9.26775 -6.10455
upperneck 25.5147 -9.93536 -0.72902
head 14.6874 -4.92999 -1.51157
rclavicle 6.67916e-014 6.04305e-014
rhumerus 51.391 -0.321755 -73.0401
rradius 33.0347
rwrist -31.2757
rhand -18.7727 -38.0632
rfingers 7.12502
rthumb 7.52458 -67.9093
lclavicle 6.67916e-014 6.04305e-014
lhumerus -101.959 -40.1133 137.003
lradius 93.0794
lwrist 49.7002
lhand 13.4926 -12.8769
lfingers 7.12502
lthumb 38.4309 12.8038
rfemur -85.0243 -20.5957 11.1892
rtibia 85.0357
rfoot -19.3023 2.9262
rtoes -8.12439
lfemur -74.0807 16.9337 -17.0085
ltibia 89.8191
lfoot -31.6608 7.49361
ltoes -21.0327
669
root 12.4748 13.1206 0.0626223 -135.48 -74.0991 159.534
lowerback 39.549 5.10634 3.32876
upperback 13.4355 5.73484 5.06804
thorax -4.41549 1.83642 1.59925
lowerneck -34.2891 -9.16515 -6.2394
upperneck 25.6512 -9.60316 -1.09877
head 14.7448 -4.86598 -1.57907
rclavicle 2.8625e-014 3.65764e-014
rhumerus 51.4274 -0.278321 -72.6357
rradius 33.2272
rwrist -31.1052
rhand -18.3577 -38.0613
rfingers 7.12502
rthumb 7.92512 -67.8928
lclavicle 2.8625e-014 3.65764e-014
lhumerus -102.298 -41.2383 135.984
lradius 94.0665
lwrist 49.3112
lhand 15.5084 -11.8279
lfingers 7.12502
lthumb 40.3299 13.2977
rfemur -84.8981 -20.5361 11.2448
rtibia 85.1371
rfoot -19.386 3.01502
rtoes -8.17687
lfemur -73.7939 17.0775 -16.8969
ltibia 89.8356
lfoot -31.8108 7.63147
ltoes -21.7676
670
root 12.4785 13.1194 0.0430905 -135.409 -74.0297 159.256
lowerback 39.6607 5.14609 3.31996
upperback 13.5257 5.76875 5.29392
thorax -4.37861 1.83319 1.8285
lowerneck -34.2509 -9.07938 -6.46633
upperneck 25.6917 -9.31031 -1.29543
head 14.7531 -4.80229 -1.56169
rclavicle -6.04305e-014 -4.85035e-014
rhumerus 51.5833 -0.230632 -72.2216
rradius 33.2629
rwrist -31.0425
rhand -18.3482 -37.3773
rfingers 7.12502
rthumb 7.93425 -67.2084
lclavicle -6.04305e-014 -4.85035e-014
lhumerus -102.525 -42.4806 134.337
lradius 95.3511
lwrist 48.5164
lhand 17.9359 -11.7609
lfingers 7.12502
lthumb 42.6076 12.6222
rfemur -84.7515 -20.5785 11.2354
rtibia 85.2476
rfoot -19.4207 3.06737
rtoes -7.86394
lfemur -73.5146 17.0937 -16.8716
ltibia 89.8142
lfoot -31.7743 7.70987
ltoes -21.5566
671
root 12.4848 13.1135 0.0214971 -135.367 -73.9924 159.074
lowerback 39.7301 5.2151 3.29522
upperback 13.5795 5.84457 5.55271
thorax -4.3762 1.85039 2.08485
lowerneck -34.2227 -8.99693 -6.64791
upperneck 25.7586 -9.00956 -1.61106
head 14.7654 -4.75065 -1.59997
rclavicle 4.45278e-014 -1.51076e-014
rhumerus 51.7778 -0.21007 -71.6393
rradius 33.0886
rwrist -30.9253
rhand -18.4338 -37.0232
rfingers 7.12502
rthumb 7.85162 -66.8574
lclavicle 4.45278e-014 -1.51076e-014
lhumerus -102.709 -43.9771 132.35
lradius 97.0008
lwrist 47.603
lhand 20.3452 -10.4937
lfingers 7.12502
lthumb 44.8565 13.0621
rfemur -84.7405 -20.587 11.2715
rtibia 85.4188
rfoot -19.4729 3.10077
rtoes -7.55119
lfemur -73.3108 17.1522 -16.8124
ltibia 89.8152
lfoot -31.8066 7.63069
ltoes -21.1683
672
root 12.4928 13.0954 0.00170941 -135.633 -74.062 159.392
lowerback 39.4783 5.30067 3.33681
upperback 13.6529 5.9648 5.88351
thorax -4.25705 1.89558 2.37724
lowerneck -34.23 -8.93392 -6.8475
upperneck 25.8394 -8.70227 -2.00173
head 14.7885 -4.71103 -1.66779
rclavicle 6.04305e-014 8.74653e-015
rhumerus 51.9879 -0.243349 -71.1219
rradius 32.8218
rwrist -30.5753
rhand -18.3738 -37.1094
rfingers 7.12502
rthumb 7.90955 -66.9414
lclavicle 6.04305e-014 8.74653e-015
lhumerus -102.53 -45.7489 129.969
lradius 98.8393
lwrist 46.9451
lhand 21.3461 -10.3488
lfingers 7.12502
lthumb 45.787 12.8339
rfemur -84.9729 -20.5402 11.5166
rtibia 85.6318
rfoot -19.5894 3.12374
rtoes -7.57991
lfemur -73.4409 17.3191 -16.6413
ltibia 89.9101
lfoot -31.805 7.48404
ltoes -20.8732
673
root 12.5058 13.0757 -0.0153822 -135.783 -74.2257 159.7
lowerback 39.0493 5.34203 3.41818
upperback 13.7488 6.03881 6.20537
thorax -4.05123 1.92546 2.66372
lowerneck -34.134 -8.96422 -7.34243
upperneck 25.7122 -8.53482 -1.89883
head 14.7469 -4.67895 -1.50679
rclavicle -3.49861e-014 -3.65764e-014
rhumerus 52.2143 -0.330686 -70.8457
rradius 32.4871
rwrist -30.0876
rhand -18.2147 -37.0537
rfingers 7.12502
rthumb 8.06309 -66.8799
lclavicle -3.49861e-014 -3.65764e-014
lhumerus -101.713 -47.7637 126.819
lradius 100.775
lwrist 47.008
lhand 22.9503 -9.52959
lfingers 7.12502
lthumb 47.2729 13.0154
rfemur -85.3322 -20.5582 11.855
rtibia 85.8426
rfoot -19.6444 3.07567
rtoes -7.74426
lfemur -73.8276 17.4358 -16.454
ltibia 90.0423
lfoot -31.7051 7.36075
ltoes -20.6712
674
root 12.525 13.0604 -0.0306148 -135.572 -74.5019 159.551
lowerback 38.7921 5.27191 3.65982
upperback 13.8338 6.02828 6.44017
thorax -3.87809 1.92025 2.80327
lowerneck -33.8847 -9.13082 -8.08076
upperneck 25.4504 -8.59195 -1.35018
head 14.6591 -4.69115 -1.16532
rclavicle 6.04305e-014 8.74653e-015
rhumerus 52.3253 -0.486192 -70.5085
rradius 32.3643
rwrist -29.9088
rhand -18.0555 -37.0897
rfingers 7.12502
rthumb 8.21674 -66.9099
lclavicle 6.04305e-014 8.74653e-015
lhumerus -100.316 -50.0919 122.974
lradius 102.874
lwrist 47.8923
lhand 24.4303 -8.74978
lfingers 7.12502
lthumb 48.6376 13.16
rfemur -85.5537 -20.7642 12.1386
rtibia 86.0342
rfoot -19.6734 3.08351
rtoes -7.52632
lfemur -74.1231 17.345 -16.2789
ltibia 90.1404
lfoot -31.5874 7.2699
ltoes -20.6506
675
root 12.5442 13.0466 -0.042787 -135.294 -74.7369 159.114
lowerback 38.8211 5.16076 3.95207
upperback 13.9023 5.98161 6.56233
thorax -3.79142 1.89704 2.80279
lowerneck -33.606 -9.22012 -8.44505
upperneck 25.2433 -8.62909 -1.15105
head 14.5498 -4.71429 -1.02023
rclavicle 3.18055e-014 4.21423e-014
rhumerus 52.4012 -0.64709 -70.0938
rradius 32.3455
rwrist -30.0947
rhand -18.0245 -37.5438
rfingers 7.12502
rthumb 8.24672 -67.3629
lclavicle 3.18055e-014 4.21423e-014
lhumerus -98.1484 -52.5 118.399
lradius 105.074
lwrist 49.0772
lhand 25.3311 -7.99851
lfingers 7.12502
lthumb 49.465 13.5007
rfemur -85.4845 -21.0233 12.2439
rtibia 86.2011
rfoot -19.7708 3.20646
rtoes -7.33571
lfemur -74.1099 17.2023 -16.1482
ltibia 90.2102
lfoot -31.5546 7.2037
ltoes -20.7458
676
root 12.5595 13.0311 -0.0542509 -135.146 -74.7591 158.866
lowerback 38.8108 5.1656 3.98795
upperback 13.9753 5.98521 6.65424
thorax -3.71508 1.89263 2.88308
lowerneck -33.5276 -9.23264 -8.62325
upperneck 25.1536 -8.54891 -1.21385
head 14.5008 -4.71096 -0.996233
rclavicle -4.13472e-014 -4.69132e-014
rhumerus 52.4676 -0.580594 -69.4506
rradius 32.4075
rwrist -30.6468
rhand -18.3627 -37.7363
rfingers 7.12502
rthumb 7.92027 -67.5679
lclavicle -4.13472e-014 -4.69132e-014
lhumerus -95.1965 -54.7178 113.186
lradius 107.364
lwrist 50.5767
lhand 26.0096 -7.25669
lfingers 7.12502
lthumb 50.0865 13.9205
rfemur -85.5542 -21.1002 12.2751
rtibia 86.3651
rfoot -19.8686 3.28013
rtoes -7.78815
lfemur -74.1192 17.2577 -16.1276
ltibia 90.2841
lfoot -31.5228 7.10716
ltoes -20.7737
